<svg xmlns="http://www.w3.org/2000/svg" viewBox="0 0 402.01 136.96">
  <defs>
    <style>
      .cls-1 {
        fill: #007853;
      }

      .cls-2 {
        fill: #3e2b2f;
      }
    </style>
  </defs>
  <g id="Layer_2" data-name="Layer 2">
    <g id="downtownOshawa">
      <g id="dcLogo">
        <path class="cls-1" d="M110.56,8.08V50.29H70.36V8.08h40.2m8-8H64.33V56.32H118.6V0Z"/>
        <path class="cls-1" d="M48.25,8.08V50.29H8.05V8.08h40.2m6-8H0V56.32H54.28Z"/>
        <path class="cls-1" d="M110.56,72.39V81.7A30.92,30.92,0,0,1,94.37,110c-8,4.6-16.1,9.25-24,13.73V72.39h40.2m8.12-6H64.33v70.52c11.63-6.53,23.31-13,34.74-19.85A38.14,38.14,0,0,0,118.6,82.73V66.3Z"/>
        <path class="cls-1" d="M48.25,72.39v51.4c-8-4.48-16.14-9.07-24-13.79A31,31,0,0,1,8.05,81.7V72.39h40.2m6-6H0V82.79A38.28,38.28,0,0,0,19.57,117.1C31,124,42.66,130.42,54.28,137Z"/>
        <path class="cls-2" d="M168.22,5.61C163.48,0,156.7,0,151.25,0H138.7V42.25H151c6,0,11.25,0,15.46-3.51,1.64-1.31,7-6.46,7-17.26A24,24,0,0,0,168.22,5.61ZM165,21.68c0,5.71-1.73,9.88-5.09,12.46-2.62,2-6.69,2.08-10.38,2.08h-4.78V6.07h6c4.65,0,7.85.54,10.38,3.32C164.66,13.15,165,19.23,165,21.68Z"/>
        <path class="cls-2" d="M209.05,0V25.26c0,2.88,0,10.53-10.06,10.53a10,10,0,0,1-8.43-3.59A10.61,10.61,0,0,1,189,25.5V0h-8v25c0,6.37,1.27,8.74,2.46,10.49,4.22,6,11.72,6.68,14.75,6.68a17.12,17.12,0,0,0,13.51-5.81,17,17,0,0,0,3.45-11.08V0Z"/>
        <path class="cls-2" d="M257.71,41.18a52,52,0,0,1-2.43-12.42v-.17c-.47-4.1-1.77-6.43-4.6-7.75a9.67,9.67,0,0,0,3-2.05A11,11,0,0,0,256.72,11a10.26,10.26,0,0,0-4.81-8.93,18.19,18.19,0,0,0-9.63-2H227.14V42.25h8V24.16h6.11c6.27,0,7.26,1.37,8,6.81v.85A61.41,61.41,0,0,0,251,41.7l.16.55H258ZM233.17,8.08h7.36c3.24,0,6.57.6,6.57,5.19A4.51,4.51,0,0,1,245,17.41a10.17,10.17,0,0,1-4.46.72h-7.36Z"/>
        <path class="cls-2" d="M293.47,0V18.13H275.38V0h-6V42.25h6V24.16h18.09V42.25h8V0Z"/>
        <path class="cls-2" d="M333.58,0h-7.09L308.74,42.25h8.17l4.16-10H338l4.19,10h8.41Zm2.52,26.13H323.3c.66-1.69,5.42-13.73,6.55-16.61C330.83,12.46,335.36,24.5,336.1,26.17Z"/>
        <path class="cls-2" d="M391.49,0l-11,32L369.79,0h-10V42.25h6v-32l11,32h6.33S392.6,16.36,396,10V42.25h6V0Z"/>
        <rect class="cls-2" x="138.7" y="104.55" width="263.31" height="2.01"/>
        <path class="cls-1" d="M164.27,81.36a6.82,6.82,0,0,1-1.73,3.82,7.75,7.75,0,0,1-5.89,2.13c-7,0-10.47-5-10.47-14.83,0-5.85,1.36-15.68,10.53-15.68,6.85,0,7.6,4.65,7.82,6.17l.12,1.39h6.21V62.87c.5-8.86-7.06-12.06-13.87-12.06-13.43,0-18.21,11.2-18.21,21.69,0,4.88,1.27,20.84,17.49,20.84,6.65,0,14.75-3.09,16.6-11.78V80.43h-8.48Z"/>
        <path class="cls-1" d="M196.81,50.33A18.42,18.42,0,0,0,183,55.92c-3.56,3.82-5.35,9.34-5.35,16.42,0,13.77,6.66,21.34,18.76,21.34s19.21-8,19.21-22C215.5,58.11,208.73,50.33,196.81,50.33Zm8,34.12a10.22,10.22,0,0,1-8.24,3.36,10,10,0,0,1-8.22-3.34,18.94,18.94,0,0,1-3.36-12c0-10.3,4-15.5,11.92-15.5,7.6,0,11.3,4.94,11.3,15.11-.09,3.06-.53,8.81-3.48,12.42Z"/>
        <path class="cls-1" d="M229.15,86.46V50.29h-6v42.2h24.12v-6Z"/>
        <path class="cls-1" d="M263.32,86.46V50.29h-6v42.2h24.12v-6Z"/>
        <path class="cls-1" d="M299.5,86.46V74.4h18.09v-6H299.5v-10h20.1v-8H293.47v42.2H319.6v-6Z"/>
        <path class="cls-1" d="M345.73,70.39v6h10v10.1a26.85,26.85,0,0,1-7.88,1.06c-4.52,0-7.9-1.22-10-3.63-2.55-3-3.46-8.2-3.46-12.06a18.38,18.38,0,0,1,4-12.28,10.7,10.7,0,0,1,8.42-3.12c4.73,0,7.64,2,8.24,5.59l.1.28h6.64v-.46a6.73,6.73,0,0,0-2-6.84,16.51,16.51,0,0,0-12.32-4.48,20.56,20.56,0,0,0-11.4,3.1c-8.24,5.52-8.88,16.08-8.88,19.07A22,22,0,0,0,333,88.44c3.42,3.5,8.33,5.2,15,5.2a44,44,0,0,0,14.33-2.43l-.52-.18V70.39Z"/>
        <path class="cls-1" d="M381.91,86.46V74.4H400v-6H381.91v-10H402v-8H375.88v42.2H402v-6Z"/>
        <path class="cls-2" d="M143.87,136.58c-4.61,0-5.47-2.72-5.29-5.9h3.72c0,1.8,0,3.22,2.13,3.22a1.76,1.76,0,0,0,1.88-1.64,2.29,2.29,0,0,0,0-.37c0-3.19-7.48-3.39-7.48-8.68,0-2.79,1.33-5,5.85-5,3.62,0,5.41,1.62,5.17,4.43h-3.62a1.7,1.7,0,0,0-1.73-1.78,1.73,1.73,0,0,0-2,1.39,1.62,1.62,0,0,0,0,.62c0,3.36,7.48,3.07,7.48,8.66C150.06,136,146.7,136.58,143.87,136.58Z"/>
        <path class="cls-2" d="M168.85,118.62v12.61c0,2.65-1.51,5.46-6,5.46-4,0-6-2.13-6-5.46V118.62h4v12.25c0,2.19.92,3,2.29,3s2.35-1.06,1.73-3V118.62Z"/>
        <path class="cls-2" d="M177.06,127.86c0-4.6,0-9,5.89-9,3.7,0,5.19,2,5.05,5.77h-3.46c0-2.31-.41-3.18-1.49-3.18-2,0-2.32,2-2.32,6.39s.28,6.36,2.32,6.36c1.67,0,1.61-2.16,1.65-3.54h3.6c0,4.66-2,6.15-5.25,6.15C177.06,136.83,177.06,132.39,177.06,127.86Z"/>
        <path class="cls-2" d="M195.65,127.86c0-4.6,0-9,5.89-9,3.72,0,5.21,2,5.05,5.77H203c0-2.31-.42-3.18-1.5-3.18-2,0-2.29,2-2.29,6.39s.25,6.36,2.29,6.36c1.69,0,1.62-2.16,1.67-3.54h3.58c0,4.66-1.85,6.15-5.25,6.15C195.65,136.83,195.65,132.39,195.65,127.86Z"/>
        <path class="cls-2" d="M215.08,136.71V118.62h10v2h-8v4h6v4h-6v6h8v2Z"/>
        <path class="cls-2" d="M236.34,136.58c-4.6,0-5.46-2.72-5.26-5.9h3.72c0,1.8,0,3.22,2.11,3.22a1.77,1.77,0,0,0,1.88-1.64,2.29,2.29,0,0,0,0-.37c0-3.19-7.48-3.39-7.48-8.68,0-2.79,1.33-5,5.85-5,3.62,0,5.43,1.62,5.18,4.43h-3.61a1.7,1.7,0,0,0-1.73-1.78,1.75,1.75,0,0,0-2,1.44,1.82,1.82,0,0,0,0,.57c0,3.36,7.5,3.07,7.5,8.66C242.56,136,239.18,136.58,236.34,136.58Z"/>
        <path class="cls-2" d="M254.94,136.58c-4.61,0-5.45-2.72-5.27-5.9h3.72c0,1.8,0,3.22,2.13,3.22a1.76,1.76,0,0,0,1.88-1.64,1.53,1.53,0,0,0,0-.37c0-3.19-7.5-3.39-7.5-8.68,0-2.79,1.33-5,5.87-5,3.62,0,5.41,1.62,5.17,4.43h-3.62a1.7,1.7,0,0,0-1.73-1.78,1.73,1.73,0,0,0-2,1.39,1.62,1.62,0,0,0,0,.62c0,3.36,7.48,3.07,7.48,8.66C261.15,136,257.71,136.58,254.94,136.58Z"/>
        <path class="cls-2" d="M279.4,136.71V118.62h5.67l2.79,11.95h0l2.95-11.95h6.68v18.09h-4V122.57h0l-3.9,14.14h-2.65l-3.5-14h0v14Z"/>
        <path class="cls-2" d="M302,136.71l5-18.09h5l4.92,18.09h-4.06l-1-4h-5.07l-1,4ZM309.35,121h0l-1.69,7.67h3.54Z"/>
        <path class="cls-2" d="M333.67,118.62v4h-6v14.07h-4V122.64h-2v-4Z"/>
        <path class="cls-2" d="M349.75,118.62v4h-4v14.07h-4V122.64h-4v-4Z"/>
        <path class="cls-2" d="M355.78,136.71V118.62h10.05v2h-6v4h6v4h-6v6h6v2Z"/>
        <path class="cls-2" d="M377.89,136.71h-4V118.62h7c2.59,0,4.25,1.67,4.25,4.74a3.93,3.93,0,0,1-3.31,4.45h-.06a3.22,3.22,0,0,1,3.3,3.14,2.07,2.07,0,0,1,0,.43,25,25,0,0,0,.44,5.33h-4a8.68,8.68,0,0,1-.44-3.75c0-2.33.22-4.29-2.9-4.29h-.26Zm0-10.05H379a2.94,2.94,0,0,0,1.91-3c0-1.68-.72-2.33-1.91-1h-1.08Z"/>
        <path class="cls-2" d="M395.63,136.58c-4.6,0-5.46-2.72-5.26-5.9h3.72c0,1.8,0,3.22,2.11,3.22a1.76,1.76,0,0,0,1.88-1.64,2.29,2.29,0,0,0,0-.37c0-3.19-7.48-3.39-7.48-8.68,0-2.79,1.33-5,5.85-5,3.62,0,5.43,1.62,5.18,4.43H398a1.7,1.7,0,0,0-1.71-1.78,1.75,1.75,0,0,0-2,1.44,1.82,1.82,0,0,0,0,.57c0,3.36,7.5,3.07,7.5,8.66C401.85,136,398.41,136.58,395.63,136.58Z"/>
      </g>
    </g>
  </g>
</svg>
