<svg xmlns="http://www.w3.org/2000/svg" xmlns:xlink="http://www.w3.org/1999/xlink" viewBox="0 0 609.74 207.65">
  <defs>
    <style>
      .cls-1 {
        fill: none;
      }

      .cls-2 {
        clip-path: url(#clip-path);
      }

      .cls-3 {
        fill: #f8971d;
      }

      .cls-4 {
        fill: #6c207e;
      }

      .cls-5 {
        fill: #c2cd23;
      }

      .cls-6 {
        fill: #00539b;
      }
    </style>
    <clipPath id="clip-path" transform="translate(0)">
      <rect class="cls-1" width="632.32" height="219.79"/>
    </clipPath>
  </defs>
  <g id="Layer_2" data-name="Layer 2">
    <g id="downtownOshawa">
      <g class="cls-2">
        <path class="cls-3" d="M17.76,52.89S169.48,40.11,0,166.17c0,0,218-140.4,17.76-113.28" transform="translate(0)"/>
        <path class="cls-4" d="M119.29,0S62.17,130.47,240,4.54c0,0-129.56,79.54-120.69-4.54" transform="translate(0)"/>
        <path class="cls-5" d="M276.34,19.85S57.44,77,240.4,152.33c1.28.53-.38-.77.8,0,0,0-133.32-63.86,35.14-132.45" transform="translate(0)"/>
        <path class="cls-6" d="M13.66,207.65S106.1,14.78,219.19,180.8c0,0-102.46-115.35-205.53,26.85" transform="translate(0)"/>
        <path class="cls-6" d="M312.92,90.85A22.67,22.67,0,0,1,307,103.06c-7.62,7.73-19.74,7.73-23.6,7.73a53.3,53.3,0,0,1-13.26-1.47c-9.82-2.68-17.54-8.71-17.54-25.55,0-1.22,0-2.52.1-3.82.21-6.75,1.15-15.13,6.47-20.75,7.84-8.05,21-8.05,24.75-8.05a48,48,0,0,1,13.68,1.71,24.35,24.35,0,0,1,10.24,5.86C313.13,64.08,314,73.2,314,80.11a53.56,53.56,0,0,1-1.05,10.74m-10.55-23.1C300.29,60.42,294.54,56,283.89,56A28.5,28.5,0,0,0,276,57C265.83,59.94,263,67.91,263,83.2c0,5.13.73,11.8,3.65,16,4.5,6.26,12.12,6.75,16.29,6.75a27.65,27.65,0,0,0,8.25-1.14,16.18,16.18,0,0,0,6.89-4c4.81-4.8,5.43-14.89,5.43-21.4a43.44,43.44,0,0,0-1.15-11.63" transform="translate(0)"/>
        <path class="cls-6" d="M335.48,90.77c-4.7-1.14-12.74-3.09-12.74-10.58,0-8,7.72-12,18.58-12,5,0,9.92,1.06,13.06,2.93a10.25,10.25,0,0,1,4.9,9.52h-8.56a6.42,6.42,0,0,0-.31-3.58c-1.36-3.09-4.8-4.55-9.5-4.55-6.06,0-9.92,2.68-9.92,5.93,0,4.23,5.43,5.54,10.86,6.92l3.55.81c3.65.9,7.31,1.79,10.12,3.67a10,10,0,0,1,4.81,8.46c0,2.76-1.36,12.28-19.42,12.28-8.36,0-20.16-1.63-19.53-13.42h8.88c-.21,3.17.2,8.87,11.38,8.87,1.35,0,9.92,0,9.92-6.43,0-5-5.23-6.27-10.34-7.41Z" transform="translate(0)"/>
        <path class="cls-6" d="M411.39,109.73h-9V85.81a34.69,34.69,0,0,0-.21-5.7c-.21-1.54-1.15-7.4-10.24-7.4a19.55,19.55,0,0,0-6,.89c-6.79,2.2-7,6.19-7.1,8.71v27.42h-8.87V52.21h8.87V73.6a27.66,27.66,0,0,1,17-5.45c4.8,0,9.6,1.22,12.53,4.15s2.93,6.75,3,9.85Z" transform="translate(0)"/>
        <path class="cls-6" d="M464.85,109.73h-6.78c-4,0-4.6-1.06-4.39-4.56a23,23,0,0,1-6.27,3.42,31.81,31.81,0,0,1-10.75,2c-11.7,0-14.73-7.08-14.73-11.72a9.59,9.59,0,0,1,1.26-4.8c3.55-6.42,12.21-7.24,21.72-8.13l8.77-.73V81.49c-.11-3.58-.21-8.78-9.71-8.78-1.78,0-6,0-8.88,2.36A8,8,0,0,0,432.17,82h-8.46a11.47,11.47,0,0,1,1.46-6.67c2.72-4.39,9.92-7.16,19.63-7.16,3.66,0,10.44.57,14,3.26,3.65,2.84,3.65,6.83,3.65,9.76v22.37a8.11,8.11,0,0,0,.52,3.83,2.14,2.14,0,0,0,1.88,1.38ZM453.68,89l-2.61.24c-8.15.74-12.74,1.55-15,2.61-3.55,1.63-4.7,4.07-4.7,6.51,0,4.55,3.87,7.56,9.51,7.56a19.07,19.07,0,0,0,8-1.87c4.6-2.27,4.7-5.53,4.81-8Z" transform="translate(0)"/>
        <path class="cls-6" d="M527.19,109.73h-9.61l-9.71-26c-.94-2.68-1-2.93-2-5.77-.52,1.79-.84,2.68-1.46,4.31l-11.07,27.42h-9.5L468.72,69.05h9.5l9.6,28.39a35.75,35.75,0,0,1,1.78,5.62c.83-2.77,1-3.1,2-5.86l11.28-28.15h8.25l9.61,26.52c1.15,3.58,1.25,4,2.3,7.49.52-2.12.72-2.77,1.35-4.72l10.45-29.29h7.83Z" transform="translate(0)"/>
        <path class="cls-6" d="M588.48,109.73h-6.79c-4,0-4.59-1.06-4.38-4.56a22.72,22.72,0,0,1-6.27,3.42,31.72,31.72,0,0,1-10.75,2c-11.7,0-14.72-7.08-14.72-11.72a9.58,9.58,0,0,1,1.25-4.8c3.55-6.42,12.22-7.24,21.72-8.13l8.77-.73V81.49c-.1-3.58-.21-8.78-9.71-8.78-1.77,0-6,0-8.88,2.36A8,8,0,0,0,555.8,82h-8.46a11.47,11.47,0,0,1,1.46-6.67c2.72-4.39,9.92-7.16,19.63-7.16,3.66,0,10.45.57,14,3.26,3.65,2.84,3.65,6.83,3.65,9.76v22.37a8,8,0,0,0,.53,3.83,2.14,2.14,0,0,0,1.87,1.38ZM577.31,89l-2.61.24c-8.15.74-12.74,1.55-15,2.61-3.56,1.63-4.71,4.07-4.71,6.51,0,4.55,3.87,7.56,9.51,7.56a19.15,19.15,0,0,0,8-1.87c4.59-2.27,4.7-5.53,4.8-8Z" transform="translate(0)"/>
        <path class="cls-6" d="M601.34,67.61a8.57,8.57,0,1,1-8.51,8.55,8.44,8.44,0,0,1,8.51-8.55Zm0,1.33a7.25,7.25,0,0,0,0,14.48,7.25,7.25,0,0,0,0-14.48Zm-1.6,12.2h-1.52V71.6a16.38,16.38,0,0,1,2.7-.23,5,5,0,0,1,3,.72,2.29,2.29,0,0,1,.87,2,2.38,2.38,0,0,1-1.86,2.32v.07c.84.16,1.41.91,1.6,2.32a7.75,7.75,0,0,0,.61,2.36h-1.6a7.26,7.26,0,0,1-.65-2.43,1.78,1.78,0,0,0-2-1.68h-1.07Zm0-5.29h1.1c1.25,0,2.32-.45,2.32-1.63,0-.84-.61-1.67-2.32-1.67a8.88,8.88,0,0,0-1.1.07Z" transform="translate(0)"/>
      </g>
    </g>
  </g>
</svg>
