<svg xmlns="http://www.w3.org/2000/svg" viewBox="0 0 278.89 162.88">
  <defs>
    <style>
      .cls-1 {
        fill: #6c1f7d;
      }

      .cls-2 {
        fill: #c3d021;
      }

      .cls-3 {
        fill: #f8981d;
      }

      .cls-4 {
        fill: #3360a9;
      }

      .cls-5, .cls-6 {
        fill: none;
        stroke: #000;
        stroke-linecap: round;
        stroke-miterlimit: 10;
      }

      .cls-5 {
        stroke-width: 3px;
      }

      .cls-6 {
        stroke-width: 5px;
      }
    </style>
  </defs>
  <g id="colours">
    <polygon class="cls-1" points="147.29 15.6 197.58 56.66 200.3 97.72 147.29 72.6 147.29 15.6"/>
    <polygon class="cls-2" points="269.81 160.38 244.75 160.38 242.27 12.82 269.81 17.23 269.81 160.38"/>
    <polygon class="cls-3" points="37.97 159.03 8.93 159.03 8.93 74.89 37.97 38.41 37.97 159.03"/>
  </g>
  <g id="buildings">
    <rect x="27.03" y="106.83" width="37.59" height="9.02"/>
    <rect x="27.03" y="138.43" width="37.59" height="9.02"/>
    <polygon class="cls-4" points="210.69 160.38 53.26 160.38 51.01 109.99 110.46 98.72 110.46 150.24 210.69 142.53 210.69 160.38"/>
    <polyline class="cls-5" points="211.84 123.71 211.84 1.5 253.74 1.5 253.74 160.38"/>
    <polyline class="cls-5" points="20.03 160.38 20.03 72.82 53.55 43.29 53.55 31.89 64.53 31.89 64.53 43.35 102.5 69.63 102.5 74.27 123.77 79.72 123.77 90"/>
    <polyline class="cls-5" points="98.79 60.44 138.34 31.89 190.71 68.43 190.71 89.26"/>
    <rect x="219.76" y="8.3" width="8.3" height="8.3"/>
    <rect x="237.55" y="8.3" width="8.3" height="8.3"/>
    <rect x="219.76" y="38.04" width="8.3" height="8.3"/>
    <rect x="237.55" y="38.04" width="8.3" height="8.3"/>
    <rect x="219.74" y="67.77" width="8.3" height="8.3"/>
    <rect x="237.54" y="67.77" width="8.3" height="8.3"/>
    <rect x="219.74" y="97.51" width="8.3" height="8.3"/>
    <rect x="237.54" y="97.51" width="8.3" height="8.3"/>
    <rect x="219.74" y="127.24" width="8.3" height="8.3"/>
    <rect x="237.54" y="127.24" width="8.3" height="8.3"/>
    <polyline class="cls-5" points="220.43 160.83 220.43 139.25 210.46 139.25 196.56 94.41 144.45 94.41 92.34 94.41 78.45 139.25 68.48 139.25 68.48 160.83"/>
    <rect x="156.72" y="66.98" width="9.03" height="24.02"/>
    <rect x="134.74" y="66.98" width="9.03" height="24.02"/>
    <polygon points="121.79 75.24 112.76 73.35 112.76 66.98 121.79 66.98 121.79 75.24"/>
    <rect x="27.03" y="75.24" width="37.59" height="9.02"/>
    <polygon points="130.85 140.77 85.45 140.76 86.45 136.12 130.85 136.42 130.85 140.77"/>
    <polygon points="130.85 123.43 89.59 123.82 90.6 119.19 130.85 119.08 130.85 123.43"/>
    <polygon points="130.85 106.2 93.95 106.34 94.95 101.71 130.85 101.85 130.85 106.2"/>
    <polygon points="158.56 140.74 203.95 140.72 202.95 136.09 158.56 136.39 158.56 140.74"/>
    <polygon points="158.56 123.4 199.81 123.78 198.81 119.15 158.56 119.05 158.56 123.4"/>
    <polygon points="158.56 106.16 195.46 106.3 194.45 101.67 158.56 101.81 158.56 106.16"/>
  </g>
  <g id="baseline">
    <line class="cls-6" x1="2.5" y1="160.38" x2="276.39" y2="160.38"/>
  </g>
</svg>
